<svg xmlns="http://www.w3.org/2000/svg" width="328" height="171.347" viewBox="0 0 328 171.347"><g transform="translate(0 0)"><path d="M18.607,159.8A36.456,36.456,0,0,1,0,164.878V146.554a18.324,18.324,0,0,0,18.322-18.325A18.323,18.323,0,0,0,0,109.905V91.581a36.645,36.645,0,0,1,36.642,36.648,36.482,36.482,0,0,1-5.079,18.612L43.111,158.39,30.157,171.347Zm32.426-27.238V92.992H70.865v39.165c0,10.168,5.133,15,12.985,15s12.986-4.631,12.986-14.5V92.992h19.83v39.064c0,22.755-12.984,32.722-33.017,32.722S51.033,154.608,51.033,132.559Zm223.313,30.908V92.992h19.528v53.36H328v17.116Zm-68.323,0V92.992h19.529v53.36h34.124v17.116Zm-73.454,0V92.992h56.672V109.6H151.9v10.672h33.823v15.4H151.9v11.176h37.849v16.612ZM0,73.3V54.972H0A18.321,18.321,0,0,0,18.32,36.648,18.321,18.321,0,0,0,0,18.325H0V0H0a36.645,36.645,0,0,1,36.64,36.648A36.645,36.645,0,0,1,0,73.3Zm68.648-.907L40.06,1.411H61.905l16,44.6,16.005-44.6h21.442L86.768,72.39ZM241,71.887,226.8,50.542h-8.556V71.887H198.718V1.411h33.319c10.771,0,18.221,2.819,22.951,7.551,4.128,4.128,6.241,9.564,6.241,16.712,0,10.773-5.738,17.922-14.495,21.647l16.811,24.566ZM218.247,35.238h12.886c6.643,0,10.468-3.22,10.468-8.557,0-5.536-4.026-8.356-10.569-8.356H218.247ZM125.262,71.887V1.411h56.674V18.023H144.591V28.695h33.822V44.1H144.591V55.273H182.44V71.887Z" transform="translate(0 0)" fill="#fff"/></g></svg>